<svg xmlns="http://www.w3.org/2000/svg" width="805" height="600"><rect width="805" height="600" x="0" y="0" fill="#FFFFFF" id="background"/><g id="viz"><g transform="translate(0,0)"><g transform="translate(10,20)"><g><path fill="rgb(204, 234, 159)" d="M0,297.6166666666667C13.534819247003082,297.6166666666667,13.534819247003082,339.26666666666665,27.069638494006163,339.26666666666665C40.595193662126974,339.26666666666665,40.595193662126974,334.8333333333333,54.12074883024778,334.8333333333333C67.65556807725085,334.8333333333333,67.65556807725085,373.8,81.19038732425393,373.8C94.72520657125702,373.8,94.72520657125702,383.25,108.26002581826009,383.25C135.32966431226626,383.25,135.32966431226626,431.43333333333334,162.39930280627243,431.43333333333334C175.93401397235522,431.43333333333334,175.93401397235522,383.13333333333327,189.46872513843797,383.13333333333327C203.00354438544105,383.13333333333327,203.00354438544105,358.1666666666667,216.53836363244415,358.1666666666667C230.07279687616045,358.1666666666667,230.07279687616045,348.48333333333335,243.6072301198768,348.48333333333335C257.14204936687986,348.48333333333335,257.14204936687986,375.7833333333333,270.67686861388296,375.7833333333333C311.28132635489214,375.7833333333333,311.28132635489214,365.8666666666667,351.8857840959014,365.8666666666667C365.4206033429045,365.8666666666667,365.4206033429045,377.18333333333334,378.9554225899076,377.18333333333334C392.4902418369106,377.18333333333334,392.4902418369106,373.2166666666667,406.0250610839137,373.2166666666667C419.5598803309168,373.2166666666667,419.5598803309168,372.40000000000003,433.09469957791987,372.40000000000003C446.6295188249229,372.40000000000003,446.6295188249229,388.0333333333333,460.164338071926,388.0333333333333C473.6991573189291,388.0333333333333,473.6991573189291,391.65000000000003,487.2339765659322,391.65000000000003C500.7687958129353,391.65000000000003,500.7687958129353,410.0833333333333,514.3036150599385,410.0833333333333C527.8384343069415,410.0833333333333,527.8384343069415,427.81666666666666,541.3732535539446,427.81666666666666C554.9080728009476,427.81666666666666,554.9080728009476,437.84999999999997,568.4428920479507,437.84999999999997C581.9777112949539,437.84999999999997,581.9777112949539,444.15,595.512530541957,444.15C609.04734978896,444.15,609.04734978896,457.5666666666667,622.582169035963,457.5666666666667C636.1166022796793,457.5666666666667,636.1166022796793,468.53333333333336,649.6510355233956,468.53333333333336C663.1862407736855,468.53333333333336,663.1862407736855,485.45000000000005,676.7214460239754,485.45000000000005C690.2562652709785,485.45000000000005,690.2562652709785,501.0833333333333,703.7910845179815,501.0833333333333C717.3259037649846,501.0833333333333,717.3259037649846,498.1666666666667,730.8607230119877,498.1666666666667C744.395156255704,498.1666666666667,744.395156255704,499.79999999999995,757.9295894994203,499.79999999999995C771.4647947497101,499.79999999999995,771.4647947497101,486.3833333333333,785,486.3833333333333L785,488.01666666666665C771.4647947497101,488.01666666666665,771.4647947497101,500.73333333333335,757.9295894994203,500.73333333333335C744.395156255704,500.73333333333335,744.395156255704,498.40000000000003,730.8607230119877,498.40000000000003C717.3259037649846,498.40000000000003,717.3259037649846,501.55,703.7910845179815,501.55C690.2562652709785,501.55,690.2562652709785,485.68333333333334,676.7214460239754,485.68333333333334C663.1862407736855,485.68333333333334,663.1862407736855,472.26666666666665,649.6510355233956,472.26666666666665C636.1166022796793,472.26666666666665,636.1166022796793,457.8,622.582169035963,457.8C609.04734978896,457.8,609.04734978896,447.8833333333333,595.512530541957,447.8833333333333C581.9777112949539,447.8833333333333,581.9777112949539,441.58333333333337,568.4428920479507,441.58333333333337C554.9080728009476,441.58333333333337,554.9080728009476,431.55,541.3732535539446,431.55C527.8384343069415,431.55,527.8384343069415,416.85,514.3036150599385,416.85C500.7687958129353,416.85,500.7687958129353,398.18333333333334,487.2339765659322,398.18333333333334C473.6991573189291,398.18333333333334,473.6991573189291,395.26666666666665,460.164338071926,395.26666666666665C446.6295188249229,395.26666666666665,446.6295188249229,378.7,433.09469957791987,378.7C419.5598803309168,378.7,419.5598803309168,380.45000000000005,406.0250610839137,380.45000000000005C392.4902418369106,380.45000000000005,392.4902418369106,380.68333333333334,378.9554225899076,380.68333333333334C365.4206033429045,380.68333333333334,365.4206033429045,370.76666666666665,351.8857840959014,370.76666666666665C311.28132635489214,370.76666666666665,311.28132635489214,380.21666666666664,270.67686861388296,380.21666666666664C257.14204936687986,380.21666666666664,257.14204936687986,351.05000000000007,243.6072301198768,351.05000000000007C230.07279687616045,351.05000000000007,230.07279687616045,361.66666666666663,216.53836363244415,361.66666666666663C203.00354438544105,361.66666666666663,203.00354438544105,383.13333333333327,189.46872513843797,383.13333333333327C175.93401397235522,383.13333333333327,175.93401397235522,431.43333333333334,162.39930280627243,431.43333333333334C135.32966431226626,431.43333333333334,135.32966431226626,383.25,108.26002581826009,383.25C94.72520657125702,383.25,94.72520657125702,373.8,81.19038732425393,373.8C67.65556807725085,373.8,67.65556807725085,334.8333333333333,54.12074883024778,334.8333333333333C40.595193662126974,334.8333333333333,40.595193662126974,339.73333333333335,27.069638494006163,339.73333333333335C13.534819247003082,339.73333333333335,13.534819247003082,297.6166666666667,0,297.6166666666667Z"><title>South Asia</title></path><path fill="rgb(253, 202, 121)" d="M0,297.6166666666667C13.534819247003082,297.6166666666667,13.534819247003082,339.73333333333335,27.069638494006163,339.73333333333335C40.595193662126974,339.73333333333335,40.595193662126974,334.8333333333333,54.12074883024778,334.8333333333333C67.65556807725085,334.8333333333333,67.65556807725085,373.8,81.19038732425393,373.8C94.72520657125702,373.8,94.72520657125702,383.25,108.26002581826009,383.25C135.32966431226626,383.25,135.32966431226626,431.43333333333334,162.39930280627243,431.43333333333334C175.93401397235522,431.43333333333334,175.93401397235522,383.13333333333327,189.46872513843797,383.13333333333327C203.00354438544105,383.13333333333327,203.00354438544105,361.9,216.53836363244415,361.9C230.07279687616045,361.9,230.07279687616045,351.75,243.6072301198768,351.75C257.14204936687986,351.75,257.14204936687986,380.91666666666663,270.67686861388296,380.91666666666663C311.28132635489214,380.91666666666663,311.28132635489214,373.8,351.8857840959014,373.8C365.4206033429045,373.8,365.4206033429045,383.48333333333335,378.9554225899076,383.48333333333335C392.4902418369106,383.48333333333335,392.4902418369106,383.25,406.0250610839137,383.25C419.5598803309168,383.25,419.5598803309168,382.2,433.09469957791987,382.2C446.6295188249229,382.2,446.6295188249229,397.3666666666667,460.164338071926,397.3666666666667C473.6991573189291,397.3666666666667,473.6991573189291,399.8166666666666,487.2339765659322,399.8166666666666C500.7687958129353,399.8166666666666,500.7687958129353,418.01666666666665,514.3036150599385,418.01666666666665C527.8384343069415,418.01666666666665,527.8384343069415,432.25,541.3732535539446,432.25C554.9080728009476,432.25,554.9080728009476,441.81666666666666,568.4428920479507,441.81666666666666C581.9777112949539,441.81666666666666,581.9777112949539,449.05,595.512530541957,449.05C609.04734978896,449.05,609.04734978896,459.66666666666663,622.582169035963,459.66666666666663C636.1166022796793,459.66666666666663,636.1166022796793,477.40000000000003,649.6510355233956,477.40000000000003C663.1862407736855,477.40000000000003,663.1862407736855,495.25,676.7214460239754,495.25C690.2562652709785,495.25,690.2562652709785,512.75,703.7910845179815,512.75C717.3259037649846,512.75,717.3259037649846,511.23333333333335,730.8607230119877,511.23333333333335C744.395156255704,511.23333333333335,744.395156255704,516.8333333333333,757.9295894994203,516.8333333333333C771.4647947497101,516.8333333333333,771.4647947497101,504.81666666666666,785,504.81666666666666L785,506.9166666666667C771.4647947497101,506.9166666666667,771.4647947497101,518.2333333333333,757.9295894994203,518.2333333333333C744.395156255704,518.2333333333333,744.395156255704,513.1,730.8607230119877,513.1C717.3259037649846,513.1,717.3259037649846,515.0833333333334,703.7910845179815,515.0833333333334C690.2562652709785,515.0833333333334,690.2562652709785,496.65,676.7214460239754,496.65C663.1862407736855,496.65,663.1862407736855,478.56666666666666,649.6510355233956,478.56666666666666C636.1166022796793,478.56666666666666,636.1166022796793,460.3666666666666,622.582169035963,460.3666666666666C609.04734978896,460.3666666666666,609.04734978896,450.21666666666664,595.512530541957,450.21666666666664C581.9777112949539,450.21666666666664,581.9777112949539,441.81666666666666,568.4428920479507,441.81666666666666C554.9080728009476,441.81666666666666,554.9080728009476,432.25,541.3732535539446,432.25C527.8384343069415,432.25,527.8384343069415,418.25,514.3036150599385,418.25C500.7687958129353,418.25,500.7687958129353,400.28333333333336,487.2339765659322,400.28333333333336C473.6991573189291,400.28333333333336,473.6991573189291,397.83333333333337,460.164338071926,397.83333333333337C446.6295188249229,397.83333333333337,446.6295188249229,382.90000000000003,433.09469957791987,382.90000000000003C419.5598803309168,382.90000000000003,419.5598803309168,383.25,406.0250610839137,383.25C392.4902418369106,383.25,392.4902418369106,383.71666666666664,378.9554225899076,383.71666666666664C365.4206033429045,383.71666666666664,365.4206033429045,374.96666666666664,351.8857840959014,374.96666666666664C311.28132635489214,374.96666666666664,311.28132635489214,382.08333333333337,270.67686861388296,382.08333333333337C257.14204936687986,382.08333333333337,257.14204936687986,351.75,243.6072301198768,351.75C230.07279687616045,351.75,230.07279687616045,362.83333333333337,216.53836363244415,362.83333333333337C203.00354438544105,362.83333333333337,203.00354438544105,383.13333333333327,189.46872513843797,383.13333333333327C175.93401397235522,383.13333333333327,175.93401397235522,431.43333333333334,162.39930280627243,431.43333333333334C135.32966431226626,431.43333333333334,135.32966431226626,383.25,108.26002581826009,383.25C94.72520657125702,383.25,94.72520657125702,373.8,81.19038732425393,373.8C67.65556807725085,373.8,67.65556807725085,334.8333333333333,54.12074883024778,334.8333333333333C40.595193662126974,334.8333333333333,40.595193662126974,339.73333333333335,27.069638494006163,339.73333333333335C13.534819247003082,339.73333333333335,13.534819247003082,297.6166666666667,0,297.6166666666667Z"><title>North Africa</title></path><path fill="rgb(251, 163, 94)" d="M0,297.15000000000003C13.534819247003082,297.15000000000003,13.534819247003082,337.6333333333333,27.069638494006163,337.6333333333333C40.595193662126974,337.6333333333333,40.595193662126974,332.73333333333335,54.12074883024778,332.73333333333335C67.65556807725085,332.73333333333335,67.65556807725085,368.9,81.19038732425393,368.9C94.72520657125702,368.9,94.72520657125702,379.2833333333333,108.26002581826009,379.2833333333333C135.32966431226626,379.2833333333333,135.32966431226626,423.26666666666665,162.39930280627243,423.26666666666665C175.93401397235522,423.26666666666665,175.93401397235522,370.5333333333333,189.46872513843797,370.5333333333333C203.00354438544105,370.5333333333333,203.00354438544105,342.53333333333336,216.53836363244415,342.53333333333336C230.07279687616045,342.53333333333336,230.07279687616045,344.05,243.6072301198768,344.05C257.14204936687986,344.05,257.14204936687986,368.78333333333336,270.67686861388296,368.78333333333336C311.28132635489214,368.78333333333336,311.28132635489214,350.4666666666667,351.8857840959014,350.4666666666667C365.4206033429045,350.4666666666667,365.4206033429045,359.45,378.9554225899076,359.45C392.4902418369106,359.45,392.4902418369106,351.28333333333336,406.0250610839137,351.28333333333336C419.5598803309168,351.28333333333336,419.5598803309168,356.53333333333336,433.09469957791987,356.53333333333336C446.6295188249229,356.53333333333336,446.6295188249229,370.3,460.164338071926,370.3C473.6991573189291,370.3,473.6991573189291,368.31666666666666,487.2339765659322,368.31666666666666C500.7687958129353,368.31666666666666,500.7687958129353,390.7166666666667,514.3036150599385,390.7166666666667C527.8384343069415,390.7166666666667,527.8384343069415,407.98333333333335,541.3732535539446,407.98333333333335C554.9080728009476,407.98333333333335,554.9080728009476,418.94999999999993,568.4428920479507,418.94999999999993C581.9777112949539,418.94999999999993,581.9777112949539,411.25,595.512530541957,411.25C609.04734978896,411.25,609.04734978896,426.06666666666666,622.582169035963,426.06666666666666C636.1166022796793,426.06666666666666,636.1166022796793,419.76666666666665,649.6510355233956,419.76666666666665C663.1862407736855,419.76666666666665,663.1862407736855,402.15000000000003,676.7214460239754,402.15000000000003C690.2562652709785,402.15000000000003,690.2562652709785,400.51666666666665,703.7910845179815,400.51666666666665C717.3259037649846,400.51666666666665,717.3259037649846,406.2333333333333,730.8607230119877,406.2333333333333C744.395156255704,406.2333333333333,744.395156255704,399.7,757.9295894994203,399.7C771.4647947497101,399.7,771.4647947497101,405.65,785,405.65L785,446.25C771.4647947497101,446.25,771.4647947497101,449.1666666666667,757.9295894994203,449.1666666666667C744.395156255704,449.1666666666667,744.395156255704,451.5,730.8607230119877,451.5C717.3259037649846,451.5,717.3259037649846,446.48333333333335,703.7910845179815,446.48333333333335C690.2562652709785,446.48333333333335,690.2562652709785,441.34999999999997,676.7214460239754,441.34999999999997C663.1862407736855,441.34999999999997,663.1862407736855,442.40000000000003,649.6510355233956,442.40000000000003C636.1166022796793,442.40000000000003,636.1166022796793,441.46666666666664,622.582169035963,441.46666666666664C609.04734978896,441.46666666666664,609.04734978896,424.54999999999995,595.512530541957,424.54999999999995C581.9777112949539,424.54999999999995,581.9777112949539,429.68333333333334,568.4428920479507,429.68333333333334C554.9080728009476,429.68333333333334,554.9080728009476,415.91666666666663,541.3732535539446,415.91666666666663C527.8384343069415,415.91666666666663,527.8384343069415,397.71666666666664,514.3036150599385,397.71666666666664C500.7687958129353,397.71666666666664,500.7687958129353,374.6166666666667,487.2339765659322,374.6166666666667C473.6991573189291,374.6166666666667,473.6991573189291,375.90000000000003,460.164338071926,375.90000000000003C446.6295188249229,375.90000000000003,446.6295188249229,362.1333333333334,433.09469957791987,362.1333333333334C419.5598803309168,362.1333333333334,419.5598803309168,356.65000000000003,406.0250610839137,356.65000000000003C392.4902418369106,356.65000000000003,392.4902418369106,368.55000000000007,378.9554225899076,368.55000000000007C365.4206033429045,368.55000000000007,365.4206033429045,361.2,351.8857840959014,361.2C311.28132635489214,361.2,311.28132635489214,375.0833333333333,270.67686861388296,375.0833333333333C257.14204936687986,375.0833333333333,257.14204936687986,345.68333333333334,243.6072301198768,345.68333333333334C230.07279687616045,345.68333333333334,230.07279687616045,355.6,216.53836363244415,355.6C203.00354438544105,355.6,203.00354438544105,379.8666666666667,189.46872513843797,379.8666666666667C175.93401397235522,379.8666666666667,175.93401397235522,424.90000000000003,162.39930280627243,424.90000000000003C135.32966431226626,424.90000000000003,135.32966431226626,379.2833333333333,108.26002581826009,379.2833333333333C94.72520657125702,379.2833333333333,94.72520657125702,368.9,81.19038732425393,368.9C67.65556807725085,368.9,67.65556807725085,334.8333333333333,54.12074883024778,334.8333333333333C40.595193662126974,334.8333333333333,40.595193662126974,338.1,27.069638494006163,338.1C13.534819247003082,338.1,13.534819247003082,297.15000000000003,0,297.15000000000003Z"><title>Latin America and the Caribbean</title></path><path fill="rgb(68, 120, 178)" d="M0,297.6166666666667C13.534819247003082,297.6166666666667,13.534819247003082,339.73333333333335,27.069638494006163,339.73333333333335C40.595193662126974,339.73333333333335,40.595193662126974,334.8333333333333,54.12074883024778,334.8333333333333C67.65556807725085,334.8333333333333,67.65556807725085,373.8,81.19038732425393,373.8C94.72520657125702,373.8,94.72520657125702,383.25,108.26002581826009,383.25C135.32966431226626,383.25,135.32966431226626,431.43333333333334,162.39930280627243,431.43333333333334C175.93401397235522,431.43333333333334,175.93401397235522,383.13333333333327,189.46872513843797,383.13333333333327C203.00354438544105,383.13333333333327,203.00354438544105,361.66666666666663,216.53836363244415,361.66666666666663C230.07279687616045,361.66666666666663,230.07279687616045,351.05000000000007,243.6072301198768,351.05000000000007C257.14204936687986,351.05000000000007,257.14204936687986,380.21666666666664,270.67686861388296,380.21666666666664C311.28132635489214,380.21666666666664,311.28132635489214,370.76666666666665,351.8857840959014,370.76666666666665C365.4206033429045,370.76666666666665,365.4206033429045,380.68333333333334,378.9554225899076,380.68333333333334C392.4902418369106,380.68333333333334,392.4902418369106,380.45000000000005,406.0250610839137,380.45000000000005C419.5598803309168,380.45000000000005,419.5598803309168,378.7,433.09469957791987,378.7C446.6295188249229,378.7,446.6295188249229,395.26666666666665,460.164338071926,395.26666666666665C473.6991573189291,395.26666666666665,473.6991573189291,398.18333333333334,487.2339765659322,398.18333333333334C500.7687958129353,398.18333333333334,500.7687958129353,416.85,514.3036150599385,416.85C527.8384343069415,416.85,527.8384343069415,431.55,541.3732535539446,431.55C554.9080728009476,431.55,554.9080728009476,441.58333333333337,568.4428920479507,441.58333333333337C581.9777112949539,441.58333333333337,581.9777112949539,447.8833333333333,595.512530541957,447.8833333333333C609.04734978896,447.8833333333333,609.04734978896,457.8,622.582169035963,457.8C636.1166022796793,457.8,636.1166022796793,472.26666666666665,649.6510355233956,472.26666666666665C663.1862407736855,472.26666666666665,663.1862407736855,485.68333333333334,676.7214460239754,485.68333333333334C690.2562652709785,485.68333333333334,690.2562652709785,501.55,703.7910845179815,501.55C717.3259037649846,501.55,717.3259037649846,498.40000000000003,730.8607230119877,498.40000000000003C744.395156255704,498.40000000000003,744.395156255704,500.73333333333335,757.9295894994203,500.73333333333335C771.4647947497101,500.73333333333335,771.4647947497101,488.01666666666665,785,488.01666666666665L785,498.5166666666667C771.4647947497101,498.5166666666667,771.4647947497101,507.7333333333333,757.9295894994203,507.7333333333333C744.395156255704,507.7333333333333,744.395156255704,505.1666666666667,730.8607230119877,505.1666666666667C717.3259037649846,505.1666666666667,717.3259037649846,507.15000000000003,703.7910845179815,507.15000000000003C690.2562652709785,507.15000000000003,690.2562652709785,489.4166666666667,676.7214460239754,489.4166666666667C663.1862407736855,489.4166666666667,663.1862407736855,475.0666666666667,649.6510355233956,475.0666666666667C636.1166022796793,475.0666666666667,636.1166022796793,458.5,622.582169035963,458.5C609.04734978896,458.5,609.04734978896,448.8166666666667,595.512530541957,448.8166666666667C581.9777112949539,448.8166666666667,581.9777112949539,441.81666666666666,568.4428920479507,441.81666666666666C554.9080728009476,441.81666666666666,554.9080728009476,432.01666666666665,541.3732535539446,432.01666666666665C527.8384343069415,432.01666666666665,527.8384343069415,418.01666666666665,514.3036150599385,418.01666666666665C500.7687958129353,418.01666666666665,500.7687958129353,399.8166666666666,487.2339765659322,399.8166666666666C473.6991573189291,399.8166666666666,473.6991573189291,397.1333333333334,460.164338071926,397.1333333333334C446.6295188249229,397.1333333333334,446.6295188249229,381.9666666666667,433.09469957791987,381.9666666666667C419.5598803309168,381.9666666666667,419.5598803309168,383.25,406.0250610839137,383.25C392.4902418369106,383.25,392.4902418369106,383.48333333333335,378.9554225899076,383.48333333333335C365.4206033429045,383.48333333333335,365.4206033429045,373.8,351.8857840959014,373.8C311.28132635489214,373.8,311.28132635489214,380.68333333333334,270.67686861388296,380.68333333333334C257.14204936687986,380.68333333333334,257.14204936687986,351.05000000000007,243.6072301198768,351.05000000000007C230.07279687616045,351.05000000000007,230.07279687616045,361.66666666666663,216.53836363244415,361.66666666666663C203.00354438544105,361.66666666666663,203.00354438544105,383.13333333333327,189.46872513843797,383.13333333333327C175.93401397235522,383.13333333333327,175.93401397235522,431.43333333333334,162.39930280627243,431.43333333333334C135.32966431226626,431.43333333333334,135.32966431226626,383.25,108.26002581826009,383.25C94.72520657125702,383.25,94.72520657125702,373.8,81.19038732425393,373.8C67.65556807725085,373.8,67.65556807725085,334.8333333333333,54.12074883024778,334.8333333333333C40.595193662126974,334.8333333333333,40.595193662126974,339.73333333333335,27.069638494006163,339.73333333333335C13.534819247003082,339.73333333333335,13.534819247003082,297.6166666666667,0,297.6166666666667Z"><title>Western Asia</title></path><path fill="rgb(158, 1, 66)" d="M0,297.15000000000003C13.534819247003082,297.15000000000003,13.534819247003082,338.1,27.069638494006163,338.1C40.595193662126974,338.1,40.595193662126974,334.8333333333333,54.12074883024778,334.8333333333333C67.65556807725085,334.8333333333333,67.65556807725085,368.9,81.19038732425393,368.9C94.72520657125702,368.9,94.72520657125702,379.2833333333333,108.26002581826009,379.2833333333333C135.32966431226626,379.2833333333333,135.32966431226626,424.90000000000003,162.39930280627243,424.90000000000003C175.93401397235522,424.90000000000003,175.93401397235522,379.8666666666667,189.46872513843797,379.8666666666667C203.00354438544105,379.8666666666667,203.00354438544105,355.6,216.53836363244415,355.6C230.07279687616045,355.6,230.07279687616045,345.68333333333334,243.6072301198768,345.68333333333334C257.14204936687986,345.68333333333334,257.14204936687986,375.0833333333333,270.67686861388296,375.0833333333333C311.28132635489214,375.0833333333333,311.28132635489214,361.2,351.8857840959014,361.2C365.4206033429045,361.2,365.4206033429045,368.55000000000007,378.9554225899076,368.55000000000007C392.4902418369106,368.55000000000007,392.4902418369106,356.65000000000003,406.0250610839137,356.65000000000003C419.5598803309168,356.65000000000003,419.5598803309168,362.1333333333334,433.09469957791987,362.1333333333334C446.6295188249229,362.1333333333334,446.6295188249229,375.90000000000003,460.164338071926,375.90000000000003C473.6991573189291,375.90000000000003,473.6991573189291,374.6166666666667,487.2339765659322,374.6166666666667C500.7687958129353,374.6166666666667,500.7687958129353,397.71666666666664,514.3036150599385,397.71666666666664C527.8384343069415,397.71666666666664,527.8384343069415,415.91666666666663,541.3732535539446,415.91666666666663C554.9080728009476,415.91666666666663,554.9080728009476,429.68333333333334,568.4428920479507,429.68333333333334C581.9777112949539,429.68333333333334,581.9777112949539,424.54999999999995,595.512530541957,424.54999999999995C609.04734978896,424.54999999999995,609.04734978896,441.46666666666664,622.582169035963,441.46666666666664C636.1166022796793,441.46666666666664,636.1166022796793,442.40000000000003,649.6510355233956,442.40000000000003C663.1862407736855,442.40000000000003,663.1862407736855,441.34999999999997,676.7214460239754,441.34999999999997C690.2562652709785,441.34999999999997,690.2562652709785,446.48333333333335,703.7910845179815,446.48333333333335C717.3259037649846,446.48333333333335,717.3259037649846,451.5,730.8607230119877,451.5C744.395156255704,451.5,744.395156255704,449.1666666666667,757.9295894994203,449.1666666666667C771.4647947497101,449.1666666666667,771.4647947497101,446.25,785,446.25L785,478.9166666666667C771.4647947497101,478.9166666666667,771.4647947497101,487.2,757.9295894994203,487.2C744.395156255704,487.2,744.395156255704,489.5333333333333,730.8607230119877,489.5333333333333C717.3259037649846,489.5333333333333,717.3259037649846,490.1166666666667,703.7910845179815,490.1166666666667C690.2562652709785,490.1166666666667,690.2562652709785,474.25,676.7214460239754,474.25C663.1862407736855,474.25,663.1862407736855,459.20000000000005,649.6510355233956,459.20000000000005C636.1166022796793,459.20000000000005,636.1166022796793,455,622.582169035963,455C609.04734978896,455,609.04734978896,441.58333333333337,595.512530541957,441.58333333333337C581.9777112949539,441.58333333333337,581.9777112949539,432.4833333333333,568.4428920479507,432.4833333333333C554.9080728009476,432.4833333333333,554.9080728009476,427.81666666666666,541.3732535539446,427.81666666666666C527.8384343069415,427.81666666666666,527.8384343069415,405.65,514.3036150599385,405.65C500.7687958129353,405.65,500.7687958129353,387.6833333333334,487.2339765659322,387.6833333333334C473.6991573189291,387.6833333333334,473.6991573189291,387.09999999999997,460.164338071926,387.09999999999997C446.6295188249229,387.09999999999997,446.6295188249229,371.2333333333333,433.09469957791987,371.2333333333333C419.5598803309168,371.2333333333333,419.5598803309168,371.58333333333337,406.0250610839137,371.58333333333337C392.4902418369106,371.58333333333337,392.4902418369106,373.9166666666667,378.9554225899076,373.9166666666667C365.4206033429045,373.9166666666667,365.4206033429045,364.9333333333333,351.8857840959014,364.9333333333333C311.28132635489214,364.9333333333333,311.28132635489214,375.55,270.67686861388296,375.55C257.14204936687986,375.55,257.14204936687986,347.3166666666666,243.6072301198768,347.3166666666666C230.07279687616045,347.3166666666666,230.07279687616045,356.76666666666665,216.53836363244415,356.76666666666665C203.00354438544105,356.76666666666665,203.00354438544105,382.4333333333333,189.46872513843797,382.4333333333333C175.93401397235522,382.4333333333333,175.93401397235522,426.53333333333336,162.39930280627243,426.53333333333336C135.32966431226626,426.53333333333336,135.32966431226626,381.6166666666666,108.26002581826009,381.6166666666666C94.72520657125702,381.6166666666666,94.72520657125702,373.33333333333337,81.19038732425393,373.33333333333337C67.65556807725085,373.33333333333337,67.65556807725085,334.8333333333333,54.12074883024778,334.8333333333333C40.595193662126974,334.8333333333333,40.595193662126974,339.26666666666665,27.069638494006163,339.26666666666665C13.534819247003082,339.26666666666665,13.534819247003082,297.6166666666667,0,297.6166666666667Z"><title>Australasia</title></path><path fill="rgb(94, 79, 162)" d="M0,265.18333333333334C13.534819247003082,265.18333333333334,13.534819247003082,229.83333333333331,27.069638494006163,229.83333333333331C40.595193662126974,229.83333333333331,40.595193662126974,227.96666666666667,54.12074883024778,227.96666666666667C67.65556807725085,227.96666666666667,67.65556807725085,192.26666666666668,81.19038732425393,192.26666666666668C94.72520657125702,192.26666666666668,94.72520657125702,187.01666666666668,108.26002581826009,187.01666666666668C135.32966431226626,187.01666666666668,135.32966431226626,130.9,162.39930280627243,130.9C175.93401397235522,130.9,175.93401397235522,190.39999999999998,189.46872513843797,190.39999999999998C203.00354438544105,190.39999999999998,203.00354438544105,209.76666666666668,216.53836363244415,209.76666666666668C230.07279687616045,209.76666666666668,230.07279687616045,221.08333333333331,243.6072301198768,221.08333333333331C257.14204936687986,221.08333333333331,257.14204936687986,194.25000000000003,270.67686861388296,194.25000000000003C311.28132635489214,194.25000000000003,311.28132635489214,203.9333333333333,351.8857840959014,203.9333333333333C365.4206033429045,203.9333333333333,365.4206033429045,235.08333333333334,378.9554225899076,235.08333333333334C392.4902418369106,235.08333333333334,392.4902418369106,245.81666666666666,406.0250610839137,245.81666666666666C419.5598803309168,245.81666666666666,419.5598803309168,248.96666666666667,433.09469957791987,248.96666666666667C446.6295188249229,248.96666666666667,446.6295188249229,245.93333333333337,460.164338071926,245.93333333333337C473.6991573189291,245.93333333333337,473.6991573189291,249.31666666666666,487.2339765659322,249.31666666666666C500.7687958129353,249.31666666666666,500.7687958129353,241.85,514.3036150599385,241.85C527.8384343069415,241.85,527.8384343069415,249.55000000000004,541.3732535539446,249.55000000000004C554.9080728009476,249.55000000000004,554.9080728009476,298.0833333333333,568.4428920479507,298.0833333333333C581.9777112949539,298.0833333333333,581.9777112949539,134.51666666666668,595.512530541957,134.51666666666668C609.04734978896,134.51666666666668,609.04734978896,207.2,622.582169035963,207.2C636.1166022796793,207.2,636.1166022796793,171.9666666666667,649.6510355233956,171.9666666666667C663.1862407736855,171.9666666666667,663.1862407736855,136.38333333333333,676.7214460239754,136.38333333333333C690.2562652709785,136.38333333333333,690.2562652709785,137.78333333333336,703.7910845179815,137.78333333333336C717.3259037649846,137.78333333333336,717.3259037649846,137.2,730.8607230119877,137.2C744.395156255704,137.2,744.395156255704,110.83333333333331,757.9295894994203,110.83333333333331C771.4647947497101,110.83333333333331,771.4647947497101,111.88333333333335,785,111.88333333333335L785,170.68333333333334C771.4647947497101,170.68333333333334,771.4647947497101,171.03333333333333,757.9295894994203,171.03333333333333C744.395156255704,171.03333333333333,744.395156255704,206.26666666666665,730.8607230119877,206.26666666666665C717.3259037649846,206.26666666666665,717.3259037649846,205.21666666666667,703.7910845179815,205.21666666666667C690.2562652709785,205.21666666666667,690.2562652709785,198.91666666666669,676.7214460239754,198.91666666666669C663.1862407736855,198.91666666666669,663.1862407736855,241.5,649.6510355233956,241.5C636.1166022796793,241.5,636.1166022796793,293.7666666666667,622.582169035963,293.7666666666667C609.04734978896,293.7666666666667,609.04734978896,201.71666666666667,595.512530541957,201.71666666666667C581.9777112949539,201.71666666666667,581.9777112949539,368.78333333333336,568.4428920479507,368.78333333333336C554.9080728009476,368.78333333333336,554.9080728009476,324.68333333333334,541.3732535539446,324.68333333333334C527.8384343069415,324.68333333333334,527.8384343069415,308.34999999999997,514.3036150599385,308.34999999999997C500.7687958129353,308.34999999999997,500.7687958129353,287.1166666666667,487.2339765659322,287.1166666666667C473.6991573189291,287.1166666666667,473.6991573189291,262.2666666666667,460.164338071926,262.2666666666667C446.6295188249229,262.2666666666667,446.6295188249229,256.43333333333334,433.09469957791987,256.43333333333334C419.5598803309168,256.43333333333334,419.5598803309168,255.38333333333333,406.0250610839137,255.38333333333333C392.4902418369106,255.38333333333333,392.4902418369106,267.98333333333335,378.9554225899076,267.98333333333335C365.4206033429045,267.98333333333335,365.4206033429045,241.26666666666665,351.8857840959014,241.26666666666665C311.28132635489214,241.26666666666665,311.28132635489214,287.35,270.67686861388296,287.35C257.14204936687986,287.35,257.14204936687986,242.78333333333336,243.6072301198768,242.78333333333336C230.07279687616045,242.78333333333336,230.07279687616045,259,216.53836363244415,259C203.00354438544105,259,203.00354438544105,249.90000000000003,189.46872513843797,249.90000000000003C175.93401397235522,249.90000000000003,175.93401397235522,225.86666666666667,162.39930280627243,225.86666666666667C135.32966431226626,225.86666666666667,135.32966431226626,217.81666666666663,108.26002581826009,217.81666666666663C94.72520657125702,217.81666666666663,94.72520657125702,215.6,81.19038732425393,215.6C67.65556807725085,215.6,67.65556807725085,231.69999999999996,54.12074883024778,231.69999999999996C40.595193662126974,231.69999999999996,40.595193662126974,301,27.069638494006163,301C13.534819247003082,301,13.534819247003082,277.31666666666666,0,277.31666666666666Z"><title>Western Europe</title></path><path fill="rgb(243, 120, 76)" d="M0,262.3833333333333C13.534819247003082,262.3833333333333,13.534819247003082,220.26666666666665,27.069638494006163,220.26666666666665C40.595193662126974,220.26666666666665,40.595193662126974,225.16666666666669,54.12074883024778,225.16666666666669C67.65556807725085,225.16666666666669,67.65556807725085,186.20000000000002,81.19038732425393,186.20000000000002C94.72520657125702,186.20000000000002,94.72520657125702,176.75000000000003,108.26002581826009,176.75000000000003C135.32966431226626,176.75000000000003,135.32966431226626,128.5666666666667,162.39930280627243,128.5666666666667C175.93401397235522,128.5666666666667,175.93401397235522,176.86666666666665,189.46872513843797,176.86666666666665C203.00354438544105,176.86666666666665,203.00354438544105,197.16666666666666,216.53836363244415,197.16666666666666C230.07279687616045,197.16666666666666,230.07279687616045,208.24999999999997,243.6072301198768,208.24999999999997C257.14204936687986,208.24999999999997,257.14204936687986,177.91666666666669,270.67686861388296,177.91666666666669C311.28132635489214,177.91666666666669,311.28132635489214,185.03333333333336,351.8857840959014,185.03333333333336C365.4206033429045,185.03333333333336,365.4206033429045,176.28333333333336,378.9554225899076,176.28333333333336C392.4902418369106,176.28333333333336,392.4902418369106,176.75000000000003,406.0250610839137,176.75000000000003C419.5598803309168,176.75000000000003,419.5598803309168,177.10000000000002,433.09469957791987,177.10000000000002C446.6295188249229,177.10000000000002,446.6295188249229,162.16666666666666,460.164338071926,162.16666666666666C473.6991573189291,162.16666666666666,473.6991573189291,159.71666666666664,487.2339765659322,159.71666666666664C500.7687958129353,159.71666666666664,500.7687958129353,141.75000000000003,514.3036150599385,141.75000000000003C527.8384343069415,141.75000000000003,527.8384343069415,127.75000000000001,541.3732535539446,127.75000000000001C554.9080728009476,127.75000000000001,554.9080728009476,118.18333333333334,568.4428920479507,118.18333333333334C581.9777112949539,118.18333333333334,581.9777112949539,109.78333333333333,595.512530541957,109.78333333333333C609.04734978896,109.78333333333333,609.04734978896,99.6333333333333,622.582169035963,99.6333333333333C636.1166022796793,99.6333333333333,636.1166022796793,81.43333333333332,649.6510355233956,81.43333333333332C663.1862407736855,81.43333333333332,663.1862407736855,63.116666666666646,676.7214460239754,63.116666666666646C690.2562652709785,63.116666666666646,690.2562652709785,44.916666666666664,703.7910845179815,44.916666666666664C717.3259037649846,44.916666666666664,717.3259037649846,46.89999999999999,730.8607230119877,46.89999999999999C744.395156255704,46.89999999999999,744.395156255704,41.766666666666666,757.9295894994203,41.766666666666666C771.4647947497101,41.766666666666666,771.4647947497101,53.083333333333364,785,53.083333333333364L785,111.88333333333335C771.4647947497101,111.88333333333335,771.4647947497101,110.83333333333331,757.9295894994203,110.83333333333331C744.395156255704,110.83333333333331,744.395156255704,137.2,730.8607230119877,137.2C717.3259037649846,137.2,717.3259037649846,137.78333333333336,703.7910845179815,137.78333333333336C690.2562652709785,137.78333333333336,690.2562652709785,136.38333333333333,676.7214460239754,136.38333333333333C663.1862407736855,136.38333333333333,663.1862407736855,171.9666666666667,649.6510355233956,171.9666666666667C636.1166022796793,171.9666666666667,636.1166022796793,207.2,622.582169035963,207.2C609.04734978896,207.2,609.04734978896,134.51666666666668,595.512530541957,134.51666666666668C581.9777112949539,134.51666666666668,581.9777112949539,298.0833333333333,568.4428920479507,298.0833333333333C554.9080728009476,298.0833333333333,554.9080728009476,249.55000000000004,541.3732535539446,249.55000000000004C527.8384343069415,249.55000000000004,527.8384343069415,241.85,514.3036150599385,241.85C500.7687958129353,241.85,500.7687958129353,249.31666666666666,487.2339765659322,249.31666666666666C473.6991573189291,249.31666666666666,473.6991573189291,245.93333333333337,460.164338071926,245.93333333333337C446.6295188249229,245.93333333333337,446.6295188249229,248.96666666666667,433.09469957791987,248.96666666666667C419.5598803309168,248.96666666666667,419.5598803309168,245.81666666666666,406.0250610839137,245.81666666666666C392.4902418369106,245.81666666666666,392.4902418369106,235.08333333333334,378.9554225899076,235.08333333333334C365.4206033429045,235.08333333333334,365.4206033429045,203.9333333333333,351.8857840959014,203.9333333333333C311.28132635489214,203.9333333333333,311.28132635489214,194.25000000000003,270.67686861388296,194.25000000000003C257.14204936687986,194.25000000000003,257.14204936687986,221.08333333333331,243.6072301198768,221.08333333333331C230.07279687616045,221.08333333333331,230.07279687616045,209.76666666666668,216.53836363244415,209.76666666666668C203.00354438544105,209.76666666666668,203.00354438544105,190.39999999999998,189.46872513843797,190.39999999999998C175.93401397235522,190.39999999999998,175.93401397235522,130.9,162.39930280627243,130.9C135.32966431226626,130.9,135.32966431226626,187.01666666666668,108.26002581826009,187.01666666666668C94.72520657125702,187.01666666666668,94.72520657125702,192.26666666666668,81.19038732425393,192.26666666666668C67.65556807725085,192.26666666666668,67.65556807725085,227.96666666666667,54.12074883024778,227.96666666666667C40.595193662126974,227.96666666666667,40.595193662126974,229.83333333333331,27.069638494006163,229.83333333333331C13.534819247003082,229.83333333333331,13.534819247003082,265.18333333333334,0,265.18333333333334Z"><title>Eastern Europe</title></path><path fill="rgb(254, 232, 154)" d="M0,277.31666666666666C13.534819247003082,277.31666666666666,13.534819247003082,301,27.069638494006163,301C40.595193662126974,301,40.595193662126974,231.69999999999996,54.12074883024778,231.69999999999996C67.65556807725085,231.69999999999996,67.65556807725085,215.6,81.19038732425393,215.6C94.72520657125702,215.6,94.72520657125702,217.81666666666663,108.26002581826009,217.81666666666663C135.32966431226626,217.81666666666663,135.32966431226626,225.86666666666667,162.39930280627243,225.86666666666667C175.93401397235522,225.86666666666667,175.93401397235522,249.90000000000003,189.46872513843797,249.90000000000003C203.00354438544105,249.90000000000003,203.00354438544105,259,216.53836363244415,259C230.07279687616045,259,230.07279687616045,242.78333333333336,243.6072301198768,242.78333333333336C257.14204936687986,242.78333333333336,257.14204936687986,287.35,270.67686861388296,287.35C311.28132635489214,287.35,311.28132635489214,241.26666666666665,351.8857840959014,241.26666666666665C365.4206033429045,241.26666666666665,365.4206033429045,267.98333333333335,378.9554225899076,267.98333333333335C392.4902418369106,267.98333333333335,392.4902418369106,255.38333333333333,406.0250610839137,255.38333333333333C419.5598803309168,255.38333333333333,419.5598803309168,256.43333333333334,433.09469957791987,256.43333333333334C446.6295188249229,256.43333333333334,446.6295188249229,262.2666666666667,460.164338071926,262.2666666666667C473.6991573189291,262.2666666666667,473.6991573189291,287.1166666666667,487.2339765659322,287.1166666666667C500.7687958129353,287.1166666666667,500.7687958129353,308.34999999999997,514.3036150599385,308.34999999999997C527.8384343069415,308.34999999999997,527.8384343069415,324.68333333333334,541.3732535539446,324.68333333333334C554.9080728009476,324.68333333333334,554.9080728009476,368.78333333333336,568.4428920479507,368.78333333333336C581.9777112949539,368.78333333333336,581.9777112949539,201.71666666666667,595.512530541957,201.71666666666667C609.04734978896,201.71666666666667,609.04734978896,293.7666666666667,622.582169035963,293.7666666666667C636.1166022796793,293.7666666666667,636.1166022796793,241.5,649.6510355233956,241.5C663.1862407736855,241.5,663.1862407736855,198.91666666666669,676.7214460239754,198.91666666666669C690.2562652709785,198.91666666666669,690.2562652709785,205.21666666666667,703.7910845179815,205.21666666666667C717.3259037649846,205.21666666666667,717.3259037649846,206.26666666666665,730.8607230119877,206.26666666666665C744.395156255704,206.26666666666665,744.395156255704,171.03333333333333,757.9295894994203,171.03333333333333C771.4647947497101,171.03333333333333,771.4647947497101,170.68333333333334,785,170.68333333333334L785,242.3166666666667C771.4647947497101,242.3166666666667,771.4647947497101,252.46666666666664,757.9295894994203,252.46666666666664C744.395156255704,252.46666666666664,744.395156255704,271.83333333333337,730.8607230119877,271.83333333333337C717.3259037649846,271.83333333333337,717.3259037649846,270.31666666666666,703.7910845179815,270.31666666666666C690.2562652709785,270.31666666666666,690.2562652709785,271.4833333333333,676.7214460239754,271.4833333333333C663.1862407736855,271.4833333333333,663.1862407736855,304.03333333333336,649.6510355233956,304.03333333333336C636.1166022796793,304.03333333333336,636.1166022796793,343.7,622.582169035963,343.7C609.04734978896,343.7,609.04734978896,299.48333333333335,595.512530541957,299.48333333333335C581.9777112949539,299.48333333333335,581.9777112949539,368.78333333333336,568.4428920479507,368.78333333333336C554.9080728009476,368.78333333333336,554.9080728009476,365.75,541.3732535539446,365.75C527.8384343069415,365.75,527.8384343069415,346.85,514.3036150599385,346.85C500.7687958129353,346.85,500.7687958129353,324.2166666666667,487.2339765659322,324.2166666666667C473.6991573189291,324.2166666666667,473.6991573189291,325.26666666666665,460.164338071926,325.26666666666665C446.6295188249229,325.26666666666665,446.6295188249229,305.19999999999993,433.09469957791987,305.19999999999993C419.5598803309168,305.19999999999993,419.5598803309168,300.65,406.0250610839137,300.65C392.4902418369106,300.65,392.4902418369106,299.25,378.9554225899076,299.25C365.4206033429045,299.25,365.4206033429045,277.2,351.8857840959014,277.2C311.28132635489214,277.2,311.28132635489214,313.94999999999993,270.67686861388296,313.94999999999993C257.14204936687986,313.94999999999993,257.14204936687986,293.8833333333333,243.6072301198768,293.8833333333333C230.07279687616045,293.8833333333333,230.07279687616045,286.3,216.53836363244415,286.3C203.00354438544105,286.3,203.00354438544105,300.76666666666665,189.46872513843797,300.76666666666665C175.93401397235522,300.76666666666665,175.93401397235522,274.6333333333333,162.39930280627243,274.6333333333333C135.32966431226626,274.6333333333333,135.32966431226626,243.24999999999997,108.26002581826009,243.24999999999997C94.72520657125702,243.24999999999997,94.72520657125702,242.2,81.19038732425393,242.2C67.65556807725085,242.2,67.65556807725085,331.8,54.12074883024778,331.8C40.595193662126974,331.8,40.595193662126974,314.3,27.069638494006163,314.3C13.534819247003082,314.3,13.534819247003082,281.98333333333335,0,281.98333333333335Z"><title>Northern America</title></path><path fill="rgb(75, 160, 177)" d="M0,297.6166666666667C13.534819247003082,297.6166666666667,13.534819247003082,339.26666666666665,27.069638494006163,339.26666666666665C40.595193662126974,339.26666666666665,40.595193662126974,334.8333333333333,54.12074883024778,334.8333333333333C67.65556807725085,334.8333333333333,67.65556807725085,373.33333333333337,81.19038732425393,373.33333333333337C94.72520657125702,373.33333333333337,94.72520657125702,381.6166666666666,108.26002581826009,381.6166666666666C135.32966431226626,381.6166666666666,135.32966431226626,426.53333333333336,162.39930280627243,426.53333333333336C175.93401397235522,426.53333333333336,175.93401397235522,382.4333333333333,189.46872513843797,382.4333333333333C203.00354438544105,382.4333333333333,203.00354438544105,356.76666666666665,216.53836363244415,356.76666666666665C230.07279687616045,356.76666666666665,230.07279687616045,347.3166666666666,243.6072301198768,347.3166666666666C257.14204936687986,347.3166666666666,257.14204936687986,375.55,270.67686861388296,375.55C311.28132635489214,375.55,311.28132635489214,364.9333333333333,351.8857840959014,364.9333333333333C365.4206033429045,364.9333333333333,365.4206033429045,373.9166666666667,378.9554225899076,373.9166666666667C392.4902418369106,373.9166666666667,392.4902418369106,371.58333333333337,406.0250610839137,371.58333333333337C419.5598803309168,371.58333333333337,419.5598803309168,371.2333333333333,433.09469957791987,371.2333333333333C446.6295188249229,371.2333333333333,446.6295188249229,387.09999999999997,460.164338071926,387.09999999999997C473.6991573189291,387.09999999999997,473.6991573189291,387.6833333333334,487.2339765659322,387.6833333333334C500.7687958129353,387.6833333333334,500.7687958129353,405.65,514.3036150599385,405.65C527.8384343069415,405.65,527.8384343069415,427.81666666666666,541.3732535539446,427.81666666666666C554.9080728009476,427.81666666666666,554.9080728009476,432.4833333333333,568.4428920479507,432.4833333333333C581.9777112949539,432.4833333333333,581.9777112949539,441.58333333333337,595.512530541957,441.58333333333337C609.04734978896,441.58333333333337,609.04734978896,455,622.582169035963,455C636.1166022796793,455,636.1166022796793,459.20000000000005,649.6510355233956,459.20000000000005C663.1862407736855,459.20000000000005,663.1862407736855,474.25,676.7214460239754,474.25C690.2562652709785,474.25,690.2562652709785,490.1166666666667,703.7910845179815,490.1166666666667C717.3259037649846,490.1166666666667,717.3259037649846,489.5333333333333,730.8607230119877,489.5333333333333C744.395156255704,489.5333333333333,744.395156255704,487.2,757.9295894994203,487.2C771.4647947497101,487.2,771.4647947497101,478.9166666666667,785,478.9166666666667L785,486.3833333333333C771.4647947497101,486.3833333333333,771.4647947497101,499.79999999999995,757.9295894994203,499.79999999999995C744.395156255704,499.79999999999995,744.395156255704,498.1666666666667,730.8607230119877,498.1666666666667C717.3259037649846,498.1666666666667,717.3259037649846,501.0833333333333,703.7910845179815,501.0833333333333C690.2562652709785,501.0833333333333,690.2562652709785,485.45000000000005,676.7214460239754,485.45000000000005C663.1862407736855,485.45000000000005,663.1862407736855,468.53333333333336,649.6510355233956,468.53333333333336C636.1166022796793,468.53333333333336,636.1166022796793,457.5666666666667,622.582169035963,457.5666666666667C609.04734978896,457.5666666666667,609.04734978896,444.15,595.512530541957,444.15C581.9777112949539,444.15,581.9777112949539,437.84999999999997,568.4428920479507,437.84999999999997C554.9080728009476,437.84999999999997,554.9080728009476,427.81666666666666,541.3732535539446,427.81666666666666C527.8384343069415,427.81666666666666,527.8384343069415,410.0833333333333,514.3036150599385,410.0833333333333C500.7687958129353,410.0833333333333,500.7687958129353,391.65000000000003,487.2339765659322,391.65000000000003C473.6991573189291,391.65000000000003,473.6991573189291,388.0333333333333,460.164338071926,388.0333333333333C446.6295188249229,388.0333333333333,446.6295188249229,372.40000000000003,433.09469957791987,372.40000000000003C419.5598803309168,372.40000000000003,419.5598803309168,373.2166666666667,406.0250610839137,373.2166666666667C392.4902418369106,373.2166666666667,392.4902418369106,377.18333333333334,378.9554225899076,377.18333333333334C365.4206033429045,377.18333333333334,365.4206033429045,365.8666666666667,351.8857840959014,365.8666666666667C311.28132635489214,365.8666666666667,311.28132635489214,375.7833333333333,270.67686861388296,375.7833333333333C257.14204936687986,375.7833333333333,257.14204936687986,348.48333333333335,243.6072301198768,348.48333333333335C230.07279687616045,348.48333333333335,230.07279687616045,358.1666666666667,216.53836363244415,358.1666666666667C203.00354438544105,358.1666666666667,203.00354438544105,383.13333333333327,189.46872513843797,383.13333333333327C175.93401397235522,383.13333333333327,175.93401397235522,431.43333333333334,162.39930280627243,431.43333333333334C135.32966431226626,431.43333333333334,135.32966431226626,383.25,108.26002581826009,383.25C94.72520657125702,383.25,94.72520657125702,373.8,81.19038732425393,373.8C67.65556807725085,373.8,67.65556807725085,334.8333333333333,54.12074883024778,334.8333333333333C40.595193662126974,334.8333333333333,40.595193662126974,339.26666666666665,27.069638494006163,339.26666666666665C13.534819247003082,339.26666666666665,13.534819247003082,297.6166666666667,0,297.6166666666667Z"><title>Sub-Saharan Africa</title></path><path fill="rgb(225, 82, 74)" d="M0,297.15000000000003C13.534819247003082,297.15000000000003,13.534819247003082,337.6333333333333,27.069638494006163,337.6333333333333C40.595193662126974,337.6333333333333,40.595193662126974,332.73333333333335,54.12074883024778,332.73333333333335C67.65556807725085,332.73333333333335,67.65556807725085,368.9,81.19038732425393,368.9C94.72520657125702,368.9,94.72520657125702,379.2833333333333,108.26002581826009,379.2833333333333C135.32966431226626,379.2833333333333,135.32966431226626,422.5666666666667,162.39930280627243,422.5666666666667C175.93401397235522,422.5666666666667,175.93401397235522,370.3,189.46872513843797,370.3C203.00354438544105,370.3,203.00354438544105,340.6666666666667,216.53836363244415,340.6666666666667C230.07279687616045,340.6666666666667,230.07279687616045,336.81666666666666,243.6072301198768,336.81666666666666C257.14204936687986,336.81666666666666,257.14204936687986,363.8833333333333,270.67686861388296,363.8833333333333C311.28132635489214,363.8833333333333,311.28132635489214,350,351.8857840959014,350C365.4206033429045,350,365.4206033429045,356.1833333333333,378.9554225899076,356.1833333333333C392.4902418369106,356.1833333333333,392.4902418369106,345.21666666666664,406.0250610839137,345.21666666666664C419.5598803309168,345.21666666666664,419.5598803309168,349.5333333333333,433.09469957791987,349.5333333333333C446.6295188249229,349.5333333333333,446.6295188249229,354.66666666666663,460.164338071926,354.66666666666663C473.6991573189291,354.66666666666663,473.6991573189291,351.05000000000007,487.2339765659322,351.05000000000007C500.7687958129353,351.05000000000007,500.7687958129353,373.6833333333333,514.3036150599385,373.6833333333333C527.8384343069415,373.6833333333333,527.8384343069415,393.75,541.3732535539446,393.75C554.9080728009476,393.75,554.9080728009476,416.85,568.4428920479507,416.85C581.9777112949539,416.85,581.9777112949539,372.04999999999995,595.512530541957,372.04999999999995C609.04734978896,372.04999999999995,609.04734978896,390.83333333333337,622.582169035963,390.83333333333337C636.1166022796793,390.83333333333337,636.1166022796793,370.5333333333333,649.6510355233956,370.5333333333333C663.1862407736855,370.5333333333333,663.1862407736855,349.18333333333334,676.7214460239754,349.18333333333334C690.2562652709785,349.18333333333334,690.2562652709785,352.91666666666663,703.7910845179815,352.91666666666663C717.3259037649846,352.91666666666663,717.3259037649846,346.2666666666667,730.8607230119877,346.2666666666667C744.395156255704,346.2666666666667,744.395156255704,323.40000000000003,757.9295894994203,323.40000000000003C771.4647947497101,323.40000000000003,771.4647947497101,338.2166666666667,785,338.2166666666667L785,405.65C771.4647947497101,405.65,771.4647947497101,399.7,757.9295894994203,399.7C744.395156255704,399.7,744.395156255704,406.2333333333333,730.8607230119877,406.2333333333333C717.3259037649846,406.2333333333333,717.3259037649846,400.51666666666665,703.7910845179815,400.51666666666665C690.2562652709785,400.51666666666665,690.2562652709785,402.15000000000003,676.7214460239754,402.15000000000003C663.1862407736855,402.15000000000003,663.1862407736855,419.76666666666665,649.6510355233956,419.76666666666665C636.1166022796793,419.76666666666665,636.1166022796793,426.06666666666666,622.582169035963,426.06666666666666C609.04734978896,426.06666666666666,609.04734978896,411.25,595.512530541957,411.25C581.9777112949539,411.25,581.9777112949539,418.94999999999993,568.4428920479507,418.94999999999993C554.9080728009476,418.94999999999993,554.9080728009476,407.98333333333335,541.3732535539446,407.98333333333335C527.8384343069415,407.98333333333335,527.8384343069415,390.7166666666667,514.3036150599385,390.7166666666667C500.7687958129353,390.7166666666667,500.7687958129353,368.31666666666666,487.2339765659322,368.31666666666666C473.6991573189291,368.31666666666666,473.6991573189291,370.3,460.164338071926,370.3C446.6295188249229,370.3,446.6295188249229,356.53333333333336,433.09469957791987,356.53333333333336C419.5598803309168,356.53333333333336,419.5598803309168,351.28333333333336,406.0250610839137,351.28333333333336C392.4902418369106,351.28333333333336,392.4902418369106,359.45,378.9554225899076,359.45C365.4206033429045,359.45,365.4206033429045,350.4666666666667,351.8857840959014,350.4666666666667C311.28132635489214,350.4666666666667,311.28132635489214,368.78333333333336,270.67686861388296,368.78333333333336C257.14204936687986,368.78333333333336,257.14204936687986,344.05,243.6072301198768,344.05C230.07279687616045,344.05,230.07279687616045,342.53333333333336,216.53836363244415,342.53333333333336C203.00354438544105,342.53333333333336,203.00354438544105,370.5333333333333,189.46872513843797,370.5333333333333C175.93401397235522,370.5333333333333,175.93401397235522,423.26666666666665,162.39930280627243,423.26666666666665C135.32966431226626,423.26666666666665,135.32966431226626,379.2833333333333,108.26002581826009,379.2833333333333C94.72520657125702,379.2833333333333,94.72520657125702,368.9,81.19038732425393,368.9C67.65556807725085,368.9,67.65556807725085,332.73333333333335,54.12074883024778,332.73333333333335C40.595193662126974,332.73333333333335,40.595193662126974,337.6333333333333,27.069638494006163,337.6333333333333C13.534819247003082,337.6333333333333,13.534819247003082,297.15000000000003,0,297.15000000000003Z"><title>East Asia</title></path><path fill="rgb(114, 195, 167)" d="M0,285.0166666666667C13.534819247003082,285.0166666666667,13.534819247003082,336.2333333333333,27.069638494006163,336.2333333333333C40.595193662126974,336.2333333333333,40.595193662126974,332.26666666666665,54.12074883024778,332.26666666666665C67.65556807725085,332.26666666666665,67.65556807725085,366.56666666666666,81.19038732425393,366.56666666666666C94.72520657125702,366.56666666666666,94.72520657125702,373.9166666666667,108.26002581826009,373.9166666666667C135.32966431226626,373.9166666666667,135.32966431226626,396.2,162.39930280627243,396.2C175.93401397235522,396.2,175.93401397235522,357.23333333333335,189.46872513843797,357.23333333333335C203.00354438544105,357.23333333333335,203.00354438544105,320.83333333333337,216.53836363244415,320.83333333333337C230.07279687616045,320.83333333333337,230.07279687616045,318.6166666666667,243.6072301198768,318.6166666666667C257.14204936687986,318.6166666666667,257.14204936687986,346.3833333333333,270.67686861388296,346.3833333333333C311.28132635489214,346.3833333333333,311.28132635489214,329.7,351.8857840959014,329.7C365.4206033429045,329.7,365.4206033429045,337.5166666666667,378.9554225899076,337.5166666666667C392.4902418369106,337.5166666666667,392.4902418369106,328.8833333333333,406.0250610839137,328.8833333333333C419.5598803309168,328.8833333333333,419.5598803309168,320.6,433.09469957791987,320.6C446.6295188249229,320.6,446.6295188249229,339.5,460.164338071926,339.5C473.6991573189291,339.5,473.6991573189291,336.58333333333337,487.2339765659322,336.58333333333337C500.7687958129353,336.58333333333337,500.7687958129353,362.95000000000005,514.3036150599385,362.95000000000005C527.8384343069415,362.95000000000005,527.8384343069415,380.21666666666664,541.3732535539446,380.21666666666664C554.9080728009476,380.21666666666664,554.9080728009476,388.15,568.4428920479507,388.15C581.9777112949539,388.15,581.9777112949539,331.44999999999993,595.512530541957,331.44999999999993C609.04734978896,331.44999999999993,609.04734978896,367.73333333333335,622.582169035963,367.73333333333335C636.1166022796793,367.73333333333335,636.1166022796793,339.03333333333336,649.6510355233956,339.03333333333336C663.1862407736855,339.03333333333336,663.1862407736855,301.1166666666667,676.7214460239754,301.1166666666667C690.2562652709785,301.1166666666667,690.2562652709785,313.71666666666664,703.7910845179815,313.71666666666664C717.3259037649846,313.71666666666664,717.3259037649846,299.1333333333333,730.8607230119877,299.1333333333333C744.395156255704,299.1333333333333,744.395156255704,289.09999999999997,757.9295894994203,289.09999999999997C771.4647947497101,289.09999999999997,771.4647947497101,289.68333333333334,785,289.68333333333334L785,338.2166666666667C771.4647947497101,338.2166666666667,771.4647947497101,323.40000000000003,757.9295894994203,323.40000000000003C744.395156255704,323.40000000000003,744.395156255704,346.2666666666667,730.8607230119877,346.2666666666667C717.3259037649846,346.2666666666667,717.3259037649846,352.91666666666663,703.7910845179815,352.91666666666663C690.2562652709785,352.91666666666663,690.2562652709785,349.18333333333334,676.7214460239754,349.18333333333334C663.1862407736855,349.18333333333334,663.1862407736855,370.5333333333333,649.6510355233956,370.5333333333333C636.1166022796793,370.5333333333333,636.1166022796793,390.83333333333337,622.582169035963,390.83333333333337C609.04734978896,390.83333333333337,609.04734978896,372.04999999999995,595.512530541957,372.04999999999995C581.9777112949539,372.04999999999995,581.9777112949539,416.85,568.4428920479507,416.85C554.9080728009476,416.85,554.9080728009476,393.75,541.3732535539446,393.75C527.8384343069415,393.75,527.8384343069415,373.6833333333333,514.3036150599385,373.6833333333333C500.7687958129353,373.6833333333333,500.7687958129353,351.05000000000007,487.2339765659322,351.05000000000007C473.6991573189291,351.05000000000007,473.6991573189291,354.66666666666663,460.164338071926,354.66666666666663C446.6295188249229,354.66666666666663,446.6295188249229,349.5333333333333,433.09469957791987,349.5333333333333C419.5598803309168,349.5333333333333,419.5598803309168,345.21666666666664,406.0250610839137,345.21666666666664C392.4902418369106,345.21666666666664,392.4902418369106,356.1833333333333,378.9554225899076,356.1833333333333C365.4206033429045,356.1833333333333,365.4206033429045,350,351.8857840959014,350C311.28132635489214,350,311.28132635489214,363.8833333333333,270.67686861388296,363.8833333333333C257.14204936687986,363.8833333333333,257.14204936687986,336.81666666666666,243.6072301198768,336.81666666666666C230.07279687616045,336.81666666666666,230.07279687616045,340.6666666666667,216.53836363244415,340.6666666666667C203.00354438544105,340.6666666666667,203.00354438544105,370.3,189.46872513843797,370.3C175.93401397235522,370.3,175.93401397235522,422.5666666666667,162.39930280627243,422.5666666666667C135.32966431226626,422.5666666666667,135.32966431226626,379.2833333333333,108.26002581826009,379.2833333333333C94.72520657125702,379.2833333333333,94.72520657125702,368.9,81.19038732425393,368.9C67.65556807725085,368.9,67.65556807725085,332.73333333333335,54.12074883024778,332.73333333333335C40.595193662126974,332.73333333333335,40.595193662126974,337.6333333333333,27.069638494006163,337.6333333333333C13.534819247003082,337.6333333333333,13.534819247003082,297.15000000000003,0,297.15000000000003Z"><title>Southern Europe</title></path><path fill="rgb(251, 248, 176)" d="M0,281.98333333333335C13.534819247003082,281.98333333333335,13.534819247003082,314.3,27.069638494006163,314.3C40.595193662126974,314.3,40.595193662126974,331.8,54.12074883024778,331.8C67.65556807725085,331.8,67.65556807725085,242.2,81.19038732425393,242.2C94.72520657125702,242.2,94.72520657125702,243.24999999999997,108.26002581826009,243.24999999999997C135.32966431226626,243.24999999999997,135.32966431226626,274.6333333333333,162.39930280627243,274.6333333333333C175.93401397235522,274.6333333333333,175.93401397235522,300.76666666666665,189.46872513843797,300.76666666666665C203.00354438544105,300.76666666666665,203.00354438544105,286.3,216.53836363244415,286.3C230.07279687616045,286.3,230.07279687616045,293.8833333333333,243.6072301198768,293.8833333333333C257.14204936687986,293.8833333333333,257.14204936687986,313.94999999999993,270.67686861388296,313.94999999999993C311.28132635489214,313.94999999999993,311.28132635489214,277.2,351.8857840959014,277.2C365.4206033429045,277.2,365.4206033429045,299.25,378.9554225899076,299.25C392.4902418369106,299.25,392.4902418369106,300.65,406.0250610839137,300.65C419.5598803309168,300.65,419.5598803309168,305.19999999999993,433.09469957791987,305.19999999999993C446.6295188249229,305.19999999999993,446.6295188249229,325.26666666666665,460.164338071926,325.26666666666665C473.6991573189291,325.26666666666665,473.6991573189291,324.2166666666667,487.2339765659322,324.2166666666667C500.7687958129353,324.2166666666667,500.7687958129353,346.85,514.3036150599385,346.85C527.8384343069415,346.85,527.8384343069415,365.75,541.3732535539446,365.75C554.9080728009476,365.75,554.9080728009476,368.78333333333336,568.4428920479507,368.78333333333336C581.9777112949539,368.78333333333336,581.9777112949539,299.48333333333335,595.512530541957,299.48333333333335C609.04734978896,299.48333333333335,609.04734978896,343.7,622.582169035963,343.7C636.1166022796793,343.7,636.1166022796793,304.03333333333336,649.6510355233956,304.03333333333336C663.1862407736855,304.03333333333336,663.1862407736855,271.4833333333333,676.7214460239754,271.4833333333333C690.2562652709785,271.4833333333333,690.2562652709785,270.31666666666666,703.7910845179815,270.31666666666666C717.3259037649846,270.31666666666666,717.3259037649846,271.83333333333337,730.8607230119877,271.83333333333337C744.395156255704,271.83333333333337,744.395156255704,252.46666666666664,757.9295894994203,252.46666666666664C771.4647947497101,252.46666666666664,771.4647947497101,242.3166666666667,785,242.3166666666667L785,289.68333333333334C771.4647947497101,289.68333333333334,771.4647947497101,289.09999999999997,757.9295894994203,289.09999999999997C744.395156255704,289.09999999999997,744.395156255704,299.1333333333333,730.8607230119877,299.1333333333333C717.3259037649846,299.1333333333333,717.3259037649846,313.71666666666664,703.7910845179815,313.71666666666664C690.2562652709785,313.71666666666664,690.2562652709785,301.1166666666667,676.7214460239754,301.1166666666667C663.1862407736855,301.1166666666667,663.1862407736855,339.03333333333336,649.6510355233956,339.03333333333336C636.1166022796793,339.03333333333336,636.1166022796793,367.73333333333335,622.582169035963,367.73333333333335C609.04734978896,367.73333333333335,609.04734978896,331.44999999999993,595.512530541957,331.44999999999993C581.9777112949539,331.44999999999993,581.9777112949539,388.15,568.4428920479507,388.15C554.9080728009476,388.15,554.9080728009476,380.21666666666664,541.3732535539446,380.21666666666664C527.8384343069415,380.21666666666664,527.8384343069415,362.95000000000005,514.3036150599385,362.95000000000005C500.7687958129353,362.95000000000005,500.7687958129353,336.58333333333337,487.2339765659322,336.58333333333337C473.6991573189291,336.58333333333337,473.6991573189291,339.5,460.164338071926,339.5C446.6295188249229,339.5,446.6295188249229,320.6,433.09469957791987,320.6C419.5598803309168,320.6,419.5598803309168,328.8833333333333,406.0250610839137,328.8833333333333C392.4902418369106,328.8833333333333,392.4902418369106,337.5166666666667,378.9554225899076,337.5166666666667C365.4206033429045,337.5166666666667,365.4206033429045,329.7,351.8857840959014,329.7C311.28132635489214,329.7,311.28132635489214,346.3833333333333,270.67686861388296,346.3833333333333C257.14204936687986,346.3833333333333,257.14204936687986,318.6166666666667,243.6072301198768,318.6166666666667C230.07279687616045,318.6166666666667,230.07279687616045,320.83333333333337,216.53836363244415,320.83333333333337C203.00354438544105,320.83333333333337,203.00354438544105,357.23333333333335,189.46872513843797,357.23333333333335C175.93401397235522,357.23333333333335,175.93401397235522,396.2,162.39930280627243,396.2C135.32966431226626,396.2,135.32966431226626,373.9166666666667,108.26002581826009,373.9166666666667C94.72520657125702,373.9166666666667,94.72520657125702,366.56666666666666,81.19038732425393,366.56666666666666C67.65556807725085,366.56666666666666,67.65556807725085,332.26666666666665,54.12074883024778,332.26666666666665C40.595193662126974,332.26666666666665,40.595193662126974,336.2333333333333,27.069638494006163,336.2333333333333C13.534819247003082,336.2333333333333,13.534819247003082,285.0166666666667,0,285.0166666666667Z"><title>Northern Europe</title></path><path fill="rgb(160, 217, 163)" d="M0,297.6166666666667C13.534819247003082,297.6166666666667,13.534819247003082,339.73333333333335,27.069638494006163,339.73333333333335C40.595193662126974,339.73333333333335,40.595193662126974,334.8333333333333,54.12074883024778,334.8333333333333C67.65556807725085,334.8333333333333,67.65556807725085,373.8,81.19038732425393,373.8C94.72520657125702,373.8,94.72520657125702,383.25,108.26002581826009,383.25C135.32966431226626,383.25,135.32966431226626,431.43333333333334,162.39930280627243,431.43333333333334C175.93401397235522,431.43333333333334,175.93401397235522,383.13333333333327,189.46872513843797,383.13333333333327C203.00354438544105,383.13333333333327,203.00354438544105,361.66666666666663,216.53836363244415,361.66666666666663C230.07279687616045,361.66666666666663,230.07279687616045,351.05000000000007,243.6072301198768,351.05000000000007C257.14204936687986,351.05000000000007,257.14204936687986,380.68333333333334,270.67686861388296,380.68333333333334C311.28132635489214,380.68333333333334,311.28132635489214,373.8,351.8857840959014,373.8C365.4206033429045,373.8,365.4206033429045,383.48333333333335,378.9554225899076,383.48333333333335C392.4902418369106,383.48333333333335,392.4902418369106,383.25,406.0250610839137,383.25C419.5598803309168,383.25,419.5598803309168,381.9666666666667,433.09469957791987,381.9666666666667C446.6295188249229,381.9666666666667,446.6295188249229,397.1333333333334,460.164338071926,397.1333333333334C473.6991573189291,397.1333333333334,473.6991573189291,399.8166666666666,487.2339765659322,399.8166666666666C500.7687958129353,399.8166666666666,500.7687958129353,418.01666666666665,514.3036150599385,418.01666666666665C527.8384343069415,418.01666666666665,527.8384343069415,432.01666666666665,541.3732535539446,432.01666666666665C554.9080728009476,432.01666666666665,554.9080728009476,441.81666666666666,568.4428920479507,441.81666666666666C581.9777112949539,441.81666666666666,581.9777112949539,448.8166666666667,595.512530541957,448.8166666666667C609.04734978896,448.8166666666667,609.04734978896,458.5,622.582169035963,458.5C636.1166022796793,458.5,636.1166022796793,475.0666666666667,649.6510355233956,475.0666666666667C663.1862407736855,475.0666666666667,663.1862407736855,489.4166666666667,676.7214460239754,489.4166666666667C690.2562652709785,489.4166666666667,690.2562652709785,507.15000000000003,703.7910845179815,507.15000000000003C717.3259037649846,507.15000000000003,717.3259037649846,505.1666666666667,730.8607230119877,505.1666666666667C744.395156255704,505.1666666666667,744.395156255704,507.7333333333333,757.9295894994203,507.7333333333333C771.4647947497101,507.7333333333333,771.4647947497101,498.5166666666667,785,498.5166666666667L785,501.55C771.4647947497101,501.55,771.4647947497101,511.46666666666664,757.9295894994203,511.46666666666664C744.395156255704,511.46666666666664,744.395156255704,508.2,730.8607230119877,508.2C717.3259037649846,508.2,717.3259037649846,509.95,703.7910845179815,509.95C690.2562652709785,509.95,690.2562652709785,492.21666666666664,676.7214460239754,492.21666666666664C663.1862407736855,492.21666666666664,663.1862407736855,477.40000000000003,649.6510355233956,477.40000000000003C636.1166022796793,477.40000000000003,636.1166022796793,459.66666666666663,622.582169035963,459.66666666666663C609.04734978896,459.66666666666663,609.04734978896,449.05,595.512530541957,449.05C581.9777112949539,449.05,581.9777112949539,441.81666666666666,568.4428920479507,441.81666666666666C554.9080728009476,441.81666666666666,554.9080728009476,432.25,541.3732535539446,432.25C527.8384343069415,432.25,527.8384343069415,418.01666666666665,514.3036150599385,418.01666666666665C500.7687958129353,418.01666666666665,500.7687958129353,399.8166666666666,487.2339765659322,399.8166666666666C473.6991573189291,399.8166666666666,473.6991573189291,397.3666666666667,460.164338071926,397.3666666666667C446.6295188249229,397.3666666666667,446.6295188249229,382.2,433.09469957791987,382.2C419.5598803309168,382.2,419.5598803309168,383.25,406.0250610839137,383.25C392.4902418369106,383.25,392.4902418369106,383.48333333333335,378.9554225899076,383.48333333333335C365.4206033429045,383.48333333333335,365.4206033429045,373.8,351.8857840959014,373.8C311.28132635489214,373.8,311.28132635489214,380.91666666666663,270.67686861388296,380.91666666666663C257.14204936687986,380.91666666666663,257.14204936687986,351.75,243.6072301198768,351.75C230.07279687616045,351.75,230.07279687616045,361.9,216.53836363244415,361.9C203.00354438544105,361.9,203.00354438544105,383.13333333333327,189.46872513843797,383.13333333333327C175.93401397235522,383.13333333333327,175.93401397235522,431.43333333333334,162.39930280627243,431.43333333333334C135.32966431226626,431.43333333333334,135.32966431226626,383.25,108.26002581826009,383.25C94.72520657125702,383.25,94.72520657125702,373.8,81.19038732425393,373.8C67.65556807725085,373.8,67.65556807725085,334.8333333333333,54.12074883024778,334.8333333333333C40.595193662126974,334.8333333333333,40.595193662126974,339.73333333333335,27.069638494006163,339.73333333333335C13.534819247003082,339.73333333333335,13.534819247003082,297.6166666666667,0,297.6166666666667Z"><title>Southeast Asia</title></path><path fill="rgb(196, 44, 74)" d="M0,297.6166666666667C13.534819247003082,297.6166666666667,13.534819247003082,339.73333333333335,27.069638494006163,339.73333333333335C40.595193662126974,339.73333333333335,40.595193662126974,334.8333333333333,54.12074883024778,334.8333333333333C67.65556807725085,334.8333333333333,67.65556807725085,373.8,81.19038732425393,373.8C94.72520657125702,373.8,94.72520657125702,383.25,108.26002581826009,383.25C135.32966431226626,383.25,135.32966431226626,431.43333333333334,162.39930280627243,431.43333333333334C175.93401397235522,431.43333333333334,175.93401397235522,383.13333333333327,189.46872513843797,383.13333333333327C203.00354438544105,383.13333333333327,203.00354438544105,361.9,216.53836363244415,361.9C230.07279687616045,361.9,230.07279687616045,351.75,243.6072301198768,351.75C257.14204936687986,351.75,257.14204936687986,380.91666666666663,270.67686861388296,380.91666666666663C311.28132635489214,380.91666666666663,311.28132635489214,373.8,351.8857840959014,373.8C365.4206033429045,373.8,365.4206033429045,383.48333333333335,378.9554225899076,383.48333333333335C392.4902418369106,383.48333333333335,392.4902418369106,383.25,406.0250610839137,383.25C419.5598803309168,383.25,419.5598803309168,382.2,433.09469957791987,382.2C446.6295188249229,382.2,446.6295188249229,397.3666666666667,460.164338071926,397.3666666666667C473.6991573189291,397.3666666666667,473.6991573189291,399.8166666666666,487.2339765659322,399.8166666666666C500.7687958129353,399.8166666666666,500.7687958129353,418.01666666666665,514.3036150599385,418.01666666666665C527.8384343069415,418.01666666666665,527.8384343069415,432.25,541.3732535539446,432.25C554.9080728009476,432.25,554.9080728009476,441.81666666666666,568.4428920479507,441.81666666666666C581.9777112949539,441.81666666666666,581.9777112949539,449.05,595.512530541957,449.05C609.04734978896,449.05,609.04734978896,459.66666666666663,622.582169035963,459.66666666666663C636.1166022796793,459.66666666666663,636.1166022796793,477.40000000000003,649.6510355233956,477.40000000000003C663.1862407736855,477.40000000000003,663.1862407736855,492.21666666666664,676.7214460239754,492.21666666666664C690.2562652709785,492.21666666666664,690.2562652709785,509.95,703.7910845179815,509.95C717.3259037649846,509.95,717.3259037649846,508.2,730.8607230119877,508.2C744.395156255704,508.2,744.395156255704,511.46666666666664,757.9295894994203,511.46666666666664C771.4647947497101,511.46666666666664,771.4647947497101,501.55,785,501.55L785,504.81666666666666C771.4647947497101,504.81666666666666,771.4647947497101,516.8333333333333,757.9295894994203,516.8333333333333C744.395156255704,516.8333333333333,744.395156255704,511.23333333333335,730.8607230119877,511.23333333333335C717.3259037649846,511.23333333333335,717.3259037649846,512.75,703.7910845179815,512.75C690.2562652709785,512.75,690.2562652709785,495.25,676.7214460239754,495.25C663.1862407736855,495.25,663.1862407736855,477.40000000000003,649.6510355233956,477.40000000000003C636.1166022796793,477.40000000000003,636.1166022796793,459.66666666666663,622.582169035963,459.66666666666663C609.04734978896,459.66666666666663,609.04734978896,449.05,595.512530541957,449.05C581.9777112949539,449.05,581.9777112949539,441.81666666666666,568.4428920479507,441.81666666666666C554.9080728009476,441.81666666666666,554.9080728009476,432.25,541.3732535539446,432.25C527.8384343069415,432.25,527.8384343069415,418.01666666666665,514.3036150599385,418.01666666666665C500.7687958129353,418.01666666666665,500.7687958129353,399.8166666666666,487.2339765659322,399.8166666666666C473.6991573189291,399.8166666666666,473.6991573189291,397.3666666666667,460.164338071926,397.3666666666667C446.6295188249229,397.3666666666667,446.6295188249229,382.2,433.09469957791987,382.2C419.5598803309168,382.2,419.5598803309168,383.25,406.0250610839137,383.25C392.4902418369106,383.25,392.4902418369106,383.48333333333335,378.9554225899076,383.48333333333335C365.4206033429045,383.48333333333335,365.4206033429045,373.8,351.8857840959014,373.8C311.28132635489214,373.8,311.28132635489214,380.91666666666663,270.67686861388296,380.91666666666663C257.14204936687986,380.91666666666663,257.14204936687986,351.75,243.6072301198768,351.75C230.07279687616045,351.75,230.07279687616045,361.9,216.53836363244415,361.9C203.00354438544105,361.9,203.00354438544105,383.13333333333327,189.46872513843797,383.13333333333327C175.93401397235522,383.13333333333327,175.93401397235522,431.43333333333334,162.39930280627243,431.43333333333334C135.32966431226626,431.43333333333334,135.32966431226626,383.25,108.26002581826009,383.25C94.72520657125702,383.25,94.72520657125702,373.8,81.19038732425393,373.8C67.65556807725085,373.8,67.65556807725085,334.8333333333333,54.12074883024778,334.8333333333333C40.595193662126974,334.8333333333333,40.595193662126974,339.73333333333335,27.069638494006163,339.73333333333335C13.534819247003082,339.73333333333335,13.534819247003082,297.6166666666667,0,297.6166666666667Z"><title>Central Asia</title></path><path fill="rgb(235, 247, 166)" d="M0,297.6166666666667C13.534819247003082,297.6166666666667,13.534819247003082,339.73333333333335,27.069638494006163,339.73333333333335C40.595193662126974,339.73333333333335,40.595193662126974,334.8333333333333,54.12074883024778,334.8333333333333C67.65556807725085,334.8333333333333,67.65556807725085,373.8,81.19038732425393,373.8C94.72520657125702,373.8,94.72520657125702,383.25,108.26002581826009,383.25C135.32966431226626,383.25,135.32966431226626,431.43333333333334,162.39930280627243,431.43333333333334C175.93401397235522,431.43333333333334,175.93401397235522,383.13333333333327,189.46872513843797,383.13333333333327C203.00354438544105,383.13333333333327,203.00354438544105,362.83333333333337,216.53836363244415,362.83333333333337C230.07279687616045,362.83333333333337,230.07279687616045,351.75,243.6072301198768,351.75C257.14204936687986,351.75,257.14204936687986,382.08333333333337,270.67686861388296,382.08333333333337C311.28132635489214,382.08333333333337,311.28132635489214,374.96666666666664,351.8857840959014,374.96666666666664C365.4206033429045,374.96666666666664,365.4206033429045,383.71666666666664,378.9554225899076,383.71666666666664C392.4902418369106,383.71666666666664,392.4902418369106,383.25,406.0250610839137,383.25C419.5598803309168,383.25,419.5598803309168,382.90000000000003,433.09469957791987,382.90000000000003C446.6295188249229,382.90000000000003,446.6295188249229,397.83333333333337,460.164338071926,397.83333333333337C473.6991573189291,397.83333333333337,473.6991573189291,400.28333333333336,487.2339765659322,400.28333333333336C500.7687958129353,400.28333333333336,500.7687958129353,418.25,514.3036150599385,418.25C527.8384343069415,418.25,527.8384343069415,432.25,541.3732535539446,432.25C554.9080728009476,432.25,554.9080728009476,441.81666666666666,568.4428920479507,441.81666666666666C581.9777112949539,441.81666666666666,581.9777112949539,450.21666666666664,595.512530541957,450.21666666666664C609.04734978896,450.21666666666664,609.04734978896,460.3666666666666,622.582169035963,460.3666666666666C636.1166022796793,460.3666666666666,636.1166022796793,478.56666666666666,649.6510355233956,478.56666666666666C663.1862407736855,478.56666666666666,663.1862407736855,496.65,676.7214460239754,496.65C690.2562652709785,496.65,690.2562652709785,515.0833333333334,703.7910845179815,515.0833333333334C717.3259037649846,515.0833333333334,717.3259037649846,513.1,730.8607230119877,513.1C744.395156255704,513.1,744.395156255704,518.2333333333333,757.9295894994203,518.2333333333333C771.4647947497101,518.2333333333333,771.4647947497101,506.9166666666667,785,506.9166666666667L785,506.9166666666667C771.4647947497101,506.9166666666667,771.4647947497101,518.2333333333333,757.9295894994203,518.2333333333333C744.395156255704,518.2333333333333,744.395156255704,513.1,730.8607230119877,513.1C717.3259037649846,513.1,717.3259037649846,515.0833333333334,703.7910845179815,515.0833333333334C690.2562652709785,515.0833333333334,690.2562652709785,496.8833333333333,676.7214460239754,496.8833333333333C663.1862407736855,496.8833333333333,663.1862407736855,478.56666666666666,649.6510355233956,478.56666666666666C636.1166022796793,478.56666666666666,636.1166022796793,460.3666666666666,622.582169035963,460.3666666666666C609.04734978896,460.3666666666666,609.04734978896,450.21666666666664,595.512530541957,450.21666666666664C581.9777112949539,450.21666666666664,581.9777112949539,441.81666666666666,568.4428920479507,441.81666666666666C554.9080728009476,441.81666666666666,554.9080728009476,432.25,541.3732535539446,432.25C527.8384343069415,432.25,527.8384343069415,418.25,514.3036150599385,418.25C500.7687958129353,418.25,500.7687958129353,400.28333333333336,487.2339765659322,400.28333333333336C473.6991573189291,400.28333333333336,473.6991573189291,397.83333333333337,460.164338071926,397.83333333333337C446.6295188249229,397.83333333333337,446.6295188249229,382.90000000000003,433.09469957791987,382.90000000000003C419.5598803309168,382.90000000000003,419.5598803309168,383.25,406.0250610839137,383.25C392.4902418369106,383.25,392.4902418369106,383.71666666666664,378.9554225899076,383.71666666666664C365.4206033429045,383.71666666666664,365.4206033429045,374.96666666666664,351.8857840959014,374.96666666666664C311.28132635489214,374.96666666666664,311.28132635489214,382.08333333333337,270.67686861388296,382.08333333333337C257.14204936687986,382.08333333333337,257.14204936687986,351.75,243.6072301198768,351.75C230.07279687616045,351.75,230.07279687616045,362.83333333333337,216.53836363244415,362.83333333333337C203.00354438544105,362.83333333333337,203.00354438544105,383.13333333333327,189.46872513843797,383.13333333333327C175.93401397235522,383.13333333333327,175.93401397235522,431.43333333333334,162.39930280627243,431.43333333333334C135.32966431226626,431.43333333333334,135.32966431226626,383.25,108.26002581826009,383.25C94.72520657125702,383.25,94.72520657125702,373.8,81.19038732425393,373.8C67.65556807725085,373.8,67.65556807725085,334.8333333333333,54.12074883024778,334.8333333333333C40.595193662126974,334.8333333333333,40.595193662126974,339.73333333333335,27.069638494006163,339.73333333333335C13.534819247003082,339.73333333333335,13.534819247003082,297.6166666666667,0,297.6166666666667Z"><title>Polynesia</title></path></g><g id="xAxis" transform="translate(0,560)" fill="none" font-size="10" font-family="sans-serif" text-anchor="middle"><path class="domain" stroke="currentColor" d="M0,0H785"/><g class="tick" opacity="1" transform="translate(27.069638494006163,0)"><line stroke="currentColor" y2="6"/><text fill="currentColor" y="9" dy="0.71em">1900</text></g><g class="tick" opacity="1" transform="translate(94.73447065013929,0)"><line stroke="currentColor" y2="6"/><text fill="currentColor" y="9" dy="0.71em">1910</text></g><g class="tick" opacity="1" transform="translate(162.39930280627243,0)"><line stroke="currentColor" y2="6"/><text fill="currentColor" y="9" dy="0.71em">1920</text></g><g class="tick" opacity="1" transform="translate(230.08244695832948,0)"><line stroke="currentColor" y2="6"/><text fill="currentColor" y="9" dy="0.71em">1930</text></g><g class="tick" opacity="1" transform="translate(297.7465071078891,0)"><line stroke="currentColor" y2="6"/><text fill="currentColor" y="9" dy="0.71em">1940</text></g><g class="tick" opacity="1" transform="translate(365.42986742178675,0)"><line stroke="currentColor" y2="6"/><text fill="currentColor" y="9" dy="0.71em">1950</text></g><g class="tick" opacity="1" transform="translate(433.09469957791987,0)"><line stroke="currentColor" y2="6"/><text fill="currentColor" y="9" dy="0.71em">1960</text></g><g class="tick" opacity="1" transform="translate(500.77805989181763,0)"><line stroke="currentColor" y2="6"/><text fill="currentColor" y="9" dy="0.71em">1970</text></g><g class="tick" opacity="1" transform="translate(568.4428920479507,0)"><line stroke="currentColor" y2="6"/><text fill="currentColor" y="9" dy="0.71em">1980</text></g><g class="tick" opacity="1" transform="translate(636.1254803552748,0)"><line stroke="currentColor" y2="6"/><text fill="currentColor" y="9" dy="0.71em">1990</text></g><g class="tick" opacity="1" transform="translate(703.7910845179815,0)"><line stroke="currentColor" y2="6"/><text fill="currentColor" y="9" dy="0.71em">2000</text></g><g class="tick" opacity="1" transform="translate(771.4744448318792,0)"><line stroke="currentColor" y2="6"/><text fill="currentColor" y="9" dy="0.71em">2010</text></g></g><text y="556" x="785" text-anchor="end" style="font-family: Arial, sans-serif; font-size: 12px; fill: rgb(123, 123, 123); font-weight: bold;">Year</text><text x="4" text-anchor="start" dominant-baseline="hanging" style="font-family: Arial, sans-serif; font-size: 12px; fill: rgb(123, 123, 123); font-weight: bold;">Medals</text><g id="labels"><text x="406.0250610839137" y="376.8333333333333" text-anchor="middle" alignment-baseline="middle" style="font-family: Arial, sans-serif; font-size: 10px; fill: black; font-weight: bold;">South Asia</text><text x="703.7910845179815" y="513.9166666666666" text-anchor="middle" alignment-baseline="middle" style="font-family: Arial, sans-serif; font-size: 10px; fill: black; font-weight: bold;">North Africa</text><text x="757.9295894994203" y="424.43333333333334" text-anchor="middle" alignment-baseline="middle" style="font-family: Arial, sans-serif; font-size: 10px; fill: black; font-weight: bold;">Latin America and the Caribbean</text><text x="785" y="493.26666666666665" text-anchor="end" alignment-baseline="middle" style="font-family: Arial, sans-serif; font-size: 10px; fill: black; font-weight: bold;">Western Asia</text><text x="703.7910845179815" y="468.29999999999995" text-anchor="middle" alignment-baseline="middle" style="font-family: Arial, sans-serif; font-size: 10px; fill: black; font-weight: bold;">Australasia</text><text x="162.39930280627243" y="178.3833333333333" text-anchor="middle" alignment-baseline="middle" style="font-family: Arial, sans-serif; font-size: 10px; fill: black; font-weight: bold;">Western Europe</text><text x="568.4428920479507" y="208.13333333333335" text-anchor="middle" alignment-baseline="middle" style="font-family: Arial, sans-serif; font-size: 10px; fill: black; font-weight: bold;">Eastern Europe</text><text x="54.12074883024778" y="281.75" text-anchor="middle" alignment-baseline="middle" style="font-family: Arial, sans-serif; font-size: 10px; fill: black; font-weight: bold;">Northern America</text><text x="757.9295894994203" y="493.5" text-anchor="middle" alignment-baseline="middle" style="font-family: Arial, sans-serif; font-size: 10px; fill: black; font-weight: bold;">Sub-Saharan Africa</text><text x="757.9295894994203" y="361.55" text-anchor="middle" alignment-baseline="middle" style="font-family: Arial, sans-serif; font-size: 10px; fill: black; font-weight: bold;">East Asia</text><text x="785" y="313.94999999999993" text-anchor="end" alignment-baseline="middle" style="font-family: Arial, sans-serif; font-size: 10px; fill: black; font-weight: bold;">Southern Europe</text><text x="108.26002581826009" y="308.5833333333333" text-anchor="middle" alignment-baseline="middle" style="font-family: Arial, sans-serif; font-size: 10px; fill: black; font-weight: bold;">Northern Europe</text><text x="757.9295894994203" y="509.6" text-anchor="middle" alignment-baseline="middle" style="font-family: Arial, sans-serif; font-size: 10px; fill: black; font-weight: bold;">Southeast Asia</text><text x="757.9295894994203" y="514.15" text-anchor="middle" alignment-baseline="middle" style="font-family: Arial, sans-serif; font-size: 10px; fill: black; font-weight: bold;">Central Asia</text><text x="676.7214460239754" y="496.76666666666665" text-anchor="middle" alignment-baseline="middle" style="font-family: Arial, sans-serif; font-size: 10px; fill: black; font-weight: bold;">Polynesia</text></g></g><text x="4" y="4" style="font-family: Arial, sans-serif; font-size: 12px; fill: black; font-weight: bold; dominant-baseline: hanging;"/></g></g></svg>